<?xml version="1.0" standalone="no"?>
<!DOCTYPE svg PUBLIC "-//W3C//DTD SVG 20010904//EN"
 "http://www.w3.org/TR/2001/REC-SVG-20010904/DTD/svg10.dtd">
<svg version="1.0" xmlns="http://www.w3.org/2000/svg"
 width="500.000000pt" height="500.000000pt" viewBox="0 0 500.000000 500.000000"
 preserveAspectRatio="xMidYMid meet">
<metadata>
Created by potrace 1.14, written by Peter Selinger 2001-2017
</metadata>
<g transform="translate(0.000000,500.000000) scale(0.100000,-0.100000)"
fill="#000000" stroke="none">
<path d="M764 3507 c-2 -7 -3 -105 -2 -217 l3 -205 428 -5 429 -5 -456 -647
-456 -648 0 -170 0 -170 768 2 767 3 3 217 2 218 -454 2 -455 3 449 643 450
644 0 174 0 174 -735 0 c-588 0 -737 -3 -741 -13z"/>
<path d="M2340 3515 c0 -2 142 -224 317 -492 174 -269 325 -502 335 -519 l18
-31 -330 -507 c-181 -279 -330 -511 -330 -516 0 -6 108 -10 278 -10 253 0 280
2 294 18 8 9 106 158 218 330 111 171 205 312 208 312 4 0 102 -147 218 -328
l211 -327 286 -3 c158 -1 287 0 287 3 0 2 -136 213 -301 467 -166 255 -317
486 -334 513 l-33 50 334 515 c184 283 334 518 334 522 0 5 -128 8 -284 8
l-284 0 -208 -342 c-114 -189 -213 -349 -219 -356 -10 -11 -54 55 -226 340
l-214 353 -288 3 c-158 1 -287 0 -287 -3z"/>
</g>
</svg>
